<?xml version="1.0" encoding="UTF-8"?>
<svg id="Layer_1" xmlns="http://www.w3.org/2000/svg" version="1.1" viewBox="0 0 402.78 95.85">
  <!-- Generator: Adobe Illustrator 30.2.1, SVG Export Plug-In . SVG Version: 2.1.1 Build 1)  -->
  <defs>
    <style>
      .st0 {
        fill: #e06a47;
      }

      .st1 {
        fill: #3b5c8a;
      }
    </style>
  </defs>
  <path class="st0" d="M180.81,22.75c-3.25,0-5.88,2.56-5.88,5.88s2.63,5.81,5.88,5.81,5.88-2.56,5.88-5.81-2.63-5.88-5.88-5.88Z"/>
  <path class="st1" d="M225.9,42.05c-3.25-3.53-7.4-5.26-12.31-5.26-2.47,0-4.67.48-6.43,1.29v9.17c1.35-.75,2.86-1.13,4.56-1.13,2.49,0,4.57.83,6.29,2.56,1.73,1.66,2.56,3.74,2.56,6.16s-.83,4.5-2.56,6.22c-1.73,1.66-3.8,2.49-6.29,2.49s-4.7-.83-6.5-2.49c-1.73-1.73-2.63-3.8-2.63-6.22,0-.19,0-16.2.02-30.78h-9.7v48.2h10.31v-4.56c1.04,3.04,5.12,5.19,10.37,5.19,4.91,0,9.06-1.73,12.31-5.19,3.32-3.53,4.98-7.82,4.98-12.86s-1.66-9.34-4.98-12.79Z"/>
  <path class="st0" d="M241.33,22.75c-3.25,0-5.88,2.56-5.88,5.88s2.63,5.81,5.88,5.81,5.88-2.56,5.88-5.81-2.63-5.88-5.88-5.88Z"/>
  <rect class="st1" x="236.21" y="37.41" width="10.31" height="34.86"/>
  <path class="st1" d="M276.67,38.14c.27-.26.56-.48.83-.72h-11.76v-13.35h-10.03v13.35h-4.63v9.34h4.63v25.52h10.03v-25.52h5.4c1.11-3.29,2.94-6.18,5.53-8.61Z"/>
  <path class="st1" d="M293.45,36.51c-5.46,0-10.03,1.66-13.56,5.05-3.53,3.32-5.33,7.75-5.33,13.21v.28c0,5.46,1.73,9.82,5.26,13.14,3.53,3.25,8.09,4.91,13.83,4.91s10.93-2.14,15.01-6.36l-6.02-5.74c-2.42,2.28-5.26,3.39-8.51,3.39-5.46,0-9.06-2.7-9.27-6.85h26.35c.07-1.04.14-2.14.14-3.32,0-5.05-1.66-9.2-4.98-12.59-3.32-3.39-7.61-5.12-12.93-5.12ZM285.01,50.83c.28-3.25,3.94-5.81,8.44-5.81,4.15,0,7.54,2.56,7.54,5.81h-15.98Z"/>
  <path class="st1" d="M326.79,42.18v-4.77h-10.31v34.86h10.31v-17.01c0-5.74,3.46-9.06,9.34-9.06,1.24,0,2.42.14,3.46.35v-9.68c-1.11-.14-2.01-.21-2.7-.21-4.77,0-8.51,2.01-10.1,5.53Z"/>
  <path class="st1" d="M379.49,37.41h-10.31v4.56c-1.04-3.04-5.12-5.19-10.37-5.19-4.91,0-9.06,1.73-12.38,5.26-3.25,3.46-4.91,7.75-4.91,12.79s1.66,9.34,4.91,12.86c3.32,3.46,7.47,5.19,12.38,5.19,2.52,0,4.77-.5,6.54-1.35v-9.17c-1.36.78-2.92,1.18-4.67,1.18-2.49,0-4.56-.83-6.29-2.49-1.73-1.73-2.56-3.8-2.56-6.22s.83-4.5,2.56-6.16c1.73-1.73,3.8-2.56,6.29-2.56s4.7.83,6.43,2.56c1.77,1.63,2.66,3.67,2.69,6.04h.06v17.54h9.63v-34.86Z"/>
  <path class="st1" d="M71.67,62.59v-6.92c-3.55,0-7.1.01-10.65,0v16.6h32.92v-9.68h-22.27Z"/>
  <g>
    <polygon class="st0" points="116.47 65.72 121.19 72.27 132.33 72.27 122.12 58.11 116.47 65.72"/>
    <polygon class="st1" points="119.88 37.41 113.38 46.61 106.87 37.41 95.67 37.41 107.64 53.94 94.43 72.27 105.34 72.27 130.83 37.41 119.88 37.41"/>
  </g>
  <path class="st0" d="M44.23,43.25c.8-.77,1.41-1.41,2.09-1.98,2.24-1.88,3.5-4.32,4.14-7.11.29-1.25.49-2.56-.4-3.71-2.06-2.67-4.55-2.55-6.21.35-1.06,1.85-2.73,3.19-4.33,4.58s-3.2,2.71-4.78,4.09c-3.2,2.79-6.3,5.88-8.48,9.56-2.71,4.57-3.68,10.58-2.46,15.78,1.07,4.56,5.5,7.34,10.02,7.41,4.33.07,8.66.02,13,.02,1.48,0,2.96.04,4.44-.02,2.64-.1,4.49-2.29,3.75-4.82-.07-.25-.07-.52-.1-.76,2.77-1.12,3.46-3.41,2.03-6.63,2.73-2.25,2.85-3.91.42-7.72.46,0,.82,0,1.19,0h18.8c2.5,0,4.53-2.03,4.53-4.53h0c0-2.5-2.02-4.52-4.51-4.53-8.99-.02-33.09-.05-33.14,0Z"/>
  <path class="st1" d="M168.98,51.11c0-9.06-4.7-14.45-12.93-14.45-4.63,0-8.37,1.94-9.75,4.98v-17.57h-10.31v48.21h10.31v-19.57c0-4.08,2.63-6.92,6.43-6.92s5.95,2.49,5.95,6.57v19.92h10.31v-21.16Z"/>
  <rect class="st1" x="175.69" y="37.41" width="10.3" height="34.86"/>
  <polygon class="st1" points="61.02 24.06 61.02 39.99 71.67 39.99 71.67 33.75 93.94 33.75 93.94 24.06 61.02 24.06"/>
</svg>